<?xml version="1.0" encoding="utf-8"?>
<svg version="1.1" xmlns="http://www.w3.org/2000/svg" xmlns:xlink="http://www.w3.org/1999/xlink" x="0px" y="0px"
	 viewBox="0 0 20 20" enable-background="new 0 0 20 20" xml:space="preserve">
	<path d="M10.945,16H8.362v-5.38H6.94V8.149h1.422V6.761C8.362,5.487,9.159,4,11.406,4
		c0.792,0,1.374,0.074,1.398,0.077l0.238,0.031l-0.057,2.312l-0.263-0.002c-0.001,0-0.591-0.006-1.235-0.006
		c-0.479,0-0.543,0.118-0.543,0.589v1.148h2.115l-0.117,2.471h-1.998L10.945,16L10.945,16L10.945,16z M8.896,15.466h1.514v-5.38
		h2.022l0.067-1.403H10.41V7.001c0-0.555,0.128-1.123,1.077-1.123c0.381,0,0.744,0.002,0.977,0.004l0.032-1.3
		c-0.236-0.021-0.628-0.048-1.09-0.048c-1.85,0-2.51,1.15-2.51,2.227v1.922H7.473v1.403h1.422L8.896,15.466L8.896,15.466
		L8.896,15.466z"/>
</svg>