<?xml version="1.0" encoding="utf-8"?>
<svg version="1.1" xmlns="http://www.w3.org/2000/svg" xmlns:xlink="http://www.w3.org/1999/xlink" x="0px" y="0px"
	 viewBox="0 0 20 20" enable-background="new 0 0 20 20" xml:space="preserve">
    <path d="M10.48,8H6.6v1.8h1.96C8.28,10.54,7.66,11,6.84,11C5.76,11,4.8,10.06,4.8,9s0.96-2,2.04-2
        C7.36,7,7.8,7.16,8.12,7.48l0.14,0.14L9.6,6.28L9.44,6.14C8.82,5.52,7.92,5.2,6.84,5.2C4.68,5.2,3,6.86,3,9s1.68,3.8,3.84,3.8
        c1.98,0,3.4-1.16,3.66-3.04c0.04-0.24,0.06-0.5,0.06-0.76c0-0.3-0.02-0.6-0.06-0.84L10.48,8z M10.12,9.7
        c-0.26,1.7-1.48,2.7-3.28,2.7C4.92,12.4,3.4,10.9,3.4,9s1.52-3.4,3.44-3.4c0.9,0,1.62,0.24,2.18,0.68L8.24,7.06
        C7.88,6.76,7.4,6.6,6.84,6.6C5.52,6.6,4.4,7.7,4.4,9c0,1.3,1.12,2.4,2.42,2.4c1.08,0,1.94-0.7,2.18-1.76L9.06,9.4H7v-1h3.14
        c0.02,0.18,0.04,0.4,0.04,0.6C10.18,9.24,10.16,9.48,10.12,9.7z"/>
    <path d="M13.8,8V6.8h-1.4V8h-1.2v1.4h1.2v1.2h1.4V9.4H15V8H13.8L13.8,8z M14.6,9h-1.2v1.2h-0.6V9h-1.2V8.4h1.2
        V7.2h0.6v1.2h1.2V9z"/>
</svg>