<?xml version="1.0" encoding="utf-8"?>
<svg version="1.1" xmlns="http://www.w3.org/2000/svg" xmlns:xlink="http://www.w3.org/1999/xlink" x="0px" y="0px"
	 viewBox="0 0 20 20" enable-background="new 0 0 20 20" xml:space="preserve">
    <path d="M15.931,6.212c-0.061-0.061-0.163-0.081-0.244-0.061l-0.407,0.143c0.244-0.285,0.407-0.591,0.509-0.876
        c0.041-0.102,0.02-0.183-0.041-0.244c-0.061-0.061-0.163-0.081-0.244-0.041c-0.57,0.244-1.059,0.448-1.466,0.57
        c0,0.02-0.02,0-0.041,0c-0.326-0.183-1.12-0.591-1.691-0.591c-1.446,0.02-2.607,1.242-2.607,2.729v0.081
        C7.58,7.515,6.419,6.904,5.157,5.581L4.953,5.377L4.831,5.621c-0.693,1.324-0.204,2.526,0.591,3.34
        C5.055,8.901,4.81,8.778,4.586,8.595c-0.081-0.061-0.183-0.081-0.285-0.02C4.22,8.615,4.179,8.738,4.199,8.839
        c0.285,0.957,0.998,1.731,1.772,2.2c-0.367,0-0.672-0.041-0.978-0.244c-0.081-0.041-0.204-0.041-0.285,0.02
        c-0.081,0.061-0.122,0.163-0.081,0.265c0.367,1.039,1.079,1.589,2.22,1.731c-0.591,0.346-1.365,0.631-2.566,0.652
        c-0.122,0-0.224,0.081-0.265,0.183c-0.041,0.122,0,0.224,0.081,0.306c0.733,0.591,2.363,0.937,4.379,0.937
        c3.585,0,6.518-3.198,6.518-7.129V7.699c0.448-0.224,0.815-0.652,0.998-1.242C16.013,6.375,15.992,6.273,15.931,6.212z
            M14.709,7.373l-0.122,0.041V7.76c0,3.707-2.75,6.721-6.11,6.721c-1.854,0-3.096-0.306-3.768-0.631
        c1.405-0.102,2.22-0.55,2.852-1.039l0.509-0.367H7.458c-1.161,0-1.874-0.326-2.281-1.1c0.367,0.122,0.754,0.122,1.181,0.102
        c0.163-0.02,0.326-0.02,0.489-0.02l0.061-0.407c-0.774-0.224-1.691-0.917-2.139-1.853c0.407,0.183,0.855,0.224,1.263,0.224h0.631
        L6.155,9.023C5.727,8.717,4.464,7.638,5.075,6.09c1.304,1.283,2.546,1.874,4.786,2.281l0.244,0.041v-0.57
        c0-1.263,0.978-2.302,2.2-2.322c0.468-0.02,1.242,0.407,1.466,0.53c0.122,0.061,0.244,0.081,0.367,0.041
        c0.306-0.102,0.672-0.244,1.08-0.407c-0.183,0.306-0.428,0.591-0.754,0.855c-0.081,0.061-0.102,0.183-0.061,0.285
        c0.041,0.102,0.163,0.143,0.265,0.102l0.794-0.265C15.32,6.925,15.096,7.23,14.709,7.373z"/>
</svg>